<mxfile host="app.diagrams.net" agent="Mozilla/5.0 (Windows NT 10.0; Win64; x64) AppleWebKit/537.36 (KHTML, like Gecko) Chrome/140.0.0.0 Safari/537.36" version="28.2.5">
  <diagram name="PÃ¡gina-1" id="jviEeat3dMfvuC-g4RSb">
    <mxGraphModel dx="1426" dy="785" grid="1" gridSize="10" guides="1" tooltips="1" connect="1" arrows="1" fold="1" page="1" pageScale="1" pageWidth="827" pageHeight="1169" math="0" shadow="0">
      <root>
        <mxCell id="0" />
        <mxCell id="1" parent="0" />
        <mxCell id="yhZqfNd9AN8-4ZAqkPxt-3" style="edgeStyle=orthogonalEdgeStyle;rounded=0;orthogonalLoop=1;jettySize=auto;html=1;entryX=0;entryY=0.5;entryDx=0;entryDy=0;" edge="1" parent="1" source="yhZqfNd9AN8-4ZAqkPxt-1" target="yhZqfNd9AN8-4ZAqkPxt-2">
          <mxGeometry relative="1" as="geometry" />
        </mxCell>
        <mxCell id="yhZqfNd9AN8-4ZAqkPxt-1" value="PA" style="ellipse;whiteSpace=wrap;html=1;" vertex="1" parent="1">
          <mxGeometry x="70" y="300" width="80" height="80" as="geometry" />
        </mxCell>
        <mxCell id="yhZqfNd9AN8-4ZAqkPxt-6" style="edgeStyle=orthogonalEdgeStyle;rounded=0;orthogonalLoop=1;jettySize=auto;html=1;entryX=0;entryY=0.5;entryDx=0;entryDy=0;" edge="1" parent="1" source="yhZqfNd9AN8-4ZAqkPxt-2" target="yhZqfNd9AN8-4ZAqkPxt-5">
          <mxGeometry relative="1" as="geometry" />
        </mxCell>
        <mxCell id="yhZqfNd9AN8-4ZAqkPxt-16" style="edgeStyle=orthogonalEdgeStyle;rounded=0;orthogonalLoop=1;jettySize=auto;html=1;entryX=0;entryY=0.5;entryDx=0;entryDy=0;" edge="1" parent="1" source="yhZqfNd9AN8-4ZAqkPxt-2" target="yhZqfNd9AN8-4ZAqkPxt-15">
          <mxGeometry relative="1" as="geometry" />
        </mxCell>
        <mxCell id="yhZqfNd9AN8-4ZAqkPxt-2" value="PB" style="ellipse;whiteSpace=wrap;html=1;" vertex="1" parent="1">
          <mxGeometry x="200" y="300" width="80" height="80" as="geometry" />
        </mxCell>
        <mxCell id="yhZqfNd9AN8-4ZAqkPxt-8" style="edgeStyle=orthogonalEdgeStyle;rounded=0;orthogonalLoop=1;jettySize=auto;html=1;entryX=0;entryY=0.5;entryDx=0;entryDy=0;" edge="1" parent="1" source="yhZqfNd9AN8-4ZAqkPxt-5" target="yhZqfNd9AN8-4ZAqkPxt-7">
          <mxGeometry relative="1" as="geometry" />
        </mxCell>
        <mxCell id="yhZqfNd9AN8-4ZAqkPxt-5" value="PC" style="ellipse;whiteSpace=wrap;html=1;" vertex="1" parent="1">
          <mxGeometry x="280" y="160" width="80" height="80" as="geometry" />
        </mxCell>
        <mxCell id="yhZqfNd9AN8-4ZAqkPxt-12" style="edgeStyle=orthogonalEdgeStyle;rounded=0;orthogonalLoop=1;jettySize=auto;html=1;entryX=0;entryY=0.5;entryDx=0;entryDy=0;" edge="1" parent="1" source="yhZqfNd9AN8-4ZAqkPxt-7" target="yhZqfNd9AN8-4ZAqkPxt-9">
          <mxGeometry relative="1" as="geometry" />
        </mxCell>
        <mxCell id="yhZqfNd9AN8-4ZAqkPxt-13" style="edgeStyle=orthogonalEdgeStyle;rounded=0;orthogonalLoop=1;jettySize=auto;html=1;entryX=0;entryY=0.5;entryDx=0;entryDy=0;" edge="1" parent="1" target="yhZqfNd9AN8-4ZAqkPxt-11">
          <mxGeometry relative="1" as="geometry">
            <mxPoint x="440" y="230" as="sourcePoint" />
            <mxPoint x="520" y="290" as="targetPoint" />
            <Array as="points">
              <mxPoint x="440" y="300" />
            </Array>
          </mxGeometry>
        </mxCell>
        <mxCell id="yhZqfNd9AN8-4ZAqkPxt-14" style="edgeStyle=orthogonalEdgeStyle;rounded=0;orthogonalLoop=1;jettySize=auto;html=1;entryX=0;entryY=0.5;entryDx=0;entryDy=0;" edge="1" parent="1" source="yhZqfNd9AN8-4ZAqkPxt-7" target="yhZqfNd9AN8-4ZAqkPxt-10">
          <mxGeometry relative="1" as="geometry">
            <Array as="points">
              <mxPoint x="440" y="100" />
            </Array>
          </mxGeometry>
        </mxCell>
        <mxCell id="yhZqfNd9AN8-4ZAqkPxt-7" value="PD" style="ellipse;whiteSpace=wrap;html=1;" vertex="1" parent="1">
          <mxGeometry x="400" y="160" width="80" height="80" as="geometry" />
        </mxCell>
        <mxCell id="yhZqfNd9AN8-4ZAqkPxt-9" value="PE" style="ellipse;whiteSpace=wrap;html=1;" vertex="1" parent="1">
          <mxGeometry x="520" y="160" width="80" height="80" as="geometry" />
        </mxCell>
        <mxCell id="yhZqfNd9AN8-4ZAqkPxt-10" value="PF" style="ellipse;whiteSpace=wrap;html=1;" vertex="1" parent="1">
          <mxGeometry x="520" y="60" width="80" height="80" as="geometry" />
        </mxCell>
        <mxCell id="yhZqfNd9AN8-4ZAqkPxt-11" value="PG" style="ellipse;whiteSpace=wrap;html=1;" vertex="1" parent="1">
          <mxGeometry x="520" y="260" width="80" height="80" as="geometry" />
        </mxCell>
        <mxCell id="yhZqfNd9AN8-4ZAqkPxt-17" style="edgeStyle=orthogonalEdgeStyle;rounded=0;orthogonalLoop=1;jettySize=auto;html=1;" edge="1" parent="1" source="yhZqfNd9AN8-4ZAqkPxt-15">
          <mxGeometry relative="1" as="geometry">
            <mxPoint x="600" y="480" as="targetPoint" />
          </mxGeometry>
        </mxCell>
        <mxCell id="yhZqfNd9AN8-4ZAqkPxt-15" value="PH" style="ellipse;whiteSpace=wrap;html=1;" vertex="1" parent="1">
          <mxGeometry x="280" y="440" width="80" height="80" as="geometry" />
        </mxCell>
        <mxCell id="yhZqfNd9AN8-4ZAqkPxt-18" value="" style="endArrow=none;html=1;rounded=0;" edge="1" parent="1">
          <mxGeometry width="50" height="50" relative="1" as="geometry">
            <mxPoint x="640" y="540" as="sourcePoint" />
            <mxPoint x="640" y="40" as="targetPoint" />
          </mxGeometry>
        </mxCell>
        <mxCell id="yhZqfNd9AN8-4ZAqkPxt-22" style="edgeStyle=orthogonalEdgeStyle;rounded=0;orthogonalLoop=1;jettySize=auto;html=1;entryX=0;entryY=0.5;entryDx=0;entryDy=0;" edge="1" parent="1" source="yhZqfNd9AN8-4ZAqkPxt-19" target="yhZqfNd9AN8-4ZAqkPxt-20">
          <mxGeometry relative="1" as="geometry" />
        </mxCell>
        <mxCell id="yhZqfNd9AN8-4ZAqkPxt-23" style="edgeStyle=orthogonalEdgeStyle;rounded=0;orthogonalLoop=1;jettySize=auto;html=1;endArrow=none;endFill=0;" edge="1" parent="1" source="yhZqfNd9AN8-4ZAqkPxt-19">
          <mxGeometry relative="1" as="geometry">
            <mxPoint x="640" y="340" as="targetPoint" />
          </mxGeometry>
        </mxCell>
        <mxCell id="yhZqfNd9AN8-4ZAqkPxt-19" value="PI" style="ellipse;whiteSpace=wrap;html=1;" vertex="1" parent="1">
          <mxGeometry x="690" y="300" width="80" height="80" as="geometry" />
        </mxCell>
        <mxCell id="yhZqfNd9AN8-4ZAqkPxt-20" value="PJ" style="ellipse;whiteSpace=wrap;html=1;" vertex="1" parent="1">
          <mxGeometry x="820" y="300" width="80" height="80" as="geometry" />
        </mxCell>
      </root>
    </mxGraphModel>
  </diagram>
</mxfile>
